# xmcd CD database file
# Copyright (C) 1993-1998 Ti Kan
# 
# Track frame offsets:
#     187
#     12560
#     24140
#     34815
#     50917
#     64187
#     83960
#     93465
#     105877
#     127037
#     142920
#     157035
#     175240
#     195540
#     211182
#     228592
#     240237
#     254165
#     270140
#     296855
# 
# Disc length: 4165 seconds
# 
# Revision: 1
# Processed by: cddbd v1.4b41PL1 Copyright (c) Steve Scherf et al.
# Submitted via: DiscPlay 4.0.4
# 
DISCID=18104314
DTITLE=Willie Nelson - Greatest Hits (& Some That Will Be)
DYEAR=1900
DGENRE=
TTITLE0=Railroad Lady
TTITLE1=Heartaches Of A Fool
TTITLE2=Blue Eyes Crying In The Rain
TTITLE3=Whiskey River
TTITLE4=Good Hearted Woman
TTITLE5=Georgia On My Mind
TTITLE6=If You've Got The Money, I've Got The Time
TTITLE7=Look What Thoughts Will Do
TTITLE8=Uncloudy Day
TTITLE9=Mammas Don't Let Your Babies Grow Up To Be Cowboys
TTITLE10=My Heroes Have Always Been Cowboys
TTITLE11=Help Me Make It Through The Night
TTITLE12=Angel Flying Too Close To The Ground
TTITLE13=I'd Have To Be Crazy
TTITLE14=Faded Love
TTITLE15=On The Road Again
TTITLE16=Heartbreak Hotel
TTITLE17=If You Could Touch Her At All
TTITLE18=Til I Gain Control Again
TTITLE19=Stay A Little Longer
EXTD=
EXTT0=
EXTT1=
EXTT2=
EXTT3=
EXTT4=
EXTT5=
EXTT6=
EXTT7=
EXTT8=
EXTT9=
EXTT10=
EXTT11=
EXTT12=
EXTT13=
EXTT14=
EXTT15=
EXTT16=
EXTT17=
EXTT18=
EXTT19=
PLAYORDER=
